<svg xmlns="http://www.w3.org/2000/svg" xmlns:xlink="http://www.w3.org/1999/xlink" width="206" height="40" viewBox="0 0 206 40">
  <defs>
    <polygon id="logo-horizontal-a" points=".007 .204 6.943 .204 6.943 7.777 .007 7.777"/>
  </defs>
  <g fill="none" fill-rule="evenodd">
    <path fill="#FFF" d="M140.89835 39.3094676L140.89835 29.4846153 138.807225 29.4846153 138.807225 32.7821302 138.770066 32.7821302C138.361782 32.2810651 137.749001 31.8789348 136.678942 31.8789348 134.841309 31.8789348 133.727936 33.4133728 133.727936 35.6652067 133.727936 37.9298222 134.85977 39.4640236 136.715865 39.4640236 137.848409 39.4640236 138.46687 39.0001182 138.813143 38.5485209L138.856693 38.5485209 138.856693 39.3094676 140.89835 39.3094676zM138.937166 35.6467454C138.937166 37.0079287 138.324385 37.7814198 137.415273 37.7814198 136.412669 37.7814198 135.837285 37.1007096 135.837285 35.6467454 135.837285 34.2673373 136.412669 33.5740829 137.415273 33.5740829 138.324385 33.5740829 138.937166 34.3660354 138.937166 35.6467454L138.937166 35.6467454zM148.550558 35.6900818C148.550558 33.1906737 147.009966 31.8789577 144.949848 31.8789577 142.889493 31.8789577 141.336594 33.1906737 141.336594 35.6900818 141.336594 38.158721 142.889493 39.464283 144.949848 39.464283 147.009966 39.464283 148.550558 38.158721 148.550558 35.6900818M146.521209 35.690082C146.521209 37.1873599 145.859434 37.7752889 144.961919 37.7752889 144.064878 37.7752889 143.396949 37.1935137 143.396949 35.690082 143.396949 34.1556441 144.064878 33.561798 144.961919 33.561798 145.859434 33.561798 146.521209 34.1620346 146.521209 35.690082"/>
    <polygon fill="#FFF" points="150.778 39.309 152.931 39.309 152.931 32.664 153.006 32.664 157.169 39.309 159.471 39.309 159.471 29.485 157.318 29.485 157.318 36.16 157.256 36.16 153.049 29.485 150.778 29.485"/>
    <path fill="#FFF" d="M167.177511 35.6900818C167.177511 33.1906737 165.636919 31.8789577 163.576801 31.8789577 161.516446 31.8789577 159.963547 33.1906737 159.963547 35.6900818 159.963547 38.158721 161.516446 39.464283 163.576801 39.464283 165.636919 39.464283 167.177511 38.158721 167.177511 35.6900818M165.148162 35.690082C165.148162 37.1873599 164.486387 37.7752889 163.588872 37.7752889 162.691831 37.7752889 162.023902 37.1935137 162.023902 35.690082 162.023902 34.1556441 162.691831 33.561798 163.588872 33.561798 164.486387 33.561798 165.148162 34.1620346 165.148162 35.690082M167.648163 39.3094673L169.733367 39.3094673 169.733367 36.587337C169.733367 34.6756211 170.283662 33.8401182 172.121292 33.6855621L172.121292 31.8789349C170.908749 31.8789349 170.0981 32.2872189 169.702361 33.3328993L169.664965 33.3328993 169.664965 32.0211834 167.648163 32.0211834 167.648163 39.3094673zM179.292431 39.3094676L179.292431 29.4846153 177.201307 29.4846153 177.201307 32.7821302 177.164147 32.7821302C176.755863 32.2810651 176.143082 31.8789348 175.073023 31.8789348 173.23539 31.8789348 172.12178 33.4133728 172.12178 35.6652067 172.12178 37.9298222 173.253851 39.4640236 175.109946 39.4640236 176.242254 39.4640236 176.860952 39.0001182 177.207224 38.5485209L177.250775 38.5485209 177.250775 39.3094676 179.292431 39.3094676zM177.331248 35.6467454C177.331248 37.0079287 176.718467 37.7814198 175.809354 37.7814198 174.806751 37.7814198 174.231366 37.1007096 174.231366 35.6467454 174.231366 34.2673373 174.806751 33.5740829 175.809354 33.5740829 176.718467 33.5740829 177.331248 34.3660354 177.331248 35.6467454L177.331248 35.6467454zM186.777983 35.4117159C186.777983 33.2029586 185.373486 31.8789349 183.393841 31.8789349 181.271711 31.8789349 179.842361 33.3513609 179.842361 35.7149114 179.842361 38.2330176 181.469344 39.4517159 183.66603 39.4517159 184.748634 39.4517159 185.837391 39.1669822 186.746977 37.9608285L185.367569 36.9151477C185.014906 37.5089942 184.34035 37.8306507 183.697036 37.8306507 182.700586 37.8306507 181.970645 37.1627217 181.94603 36.1603551L186.710054 36.1603551C186.771829 35.7643787 186.777983 35.6344377 186.777983 35.4117159M184.730172 34.6323075L181.98319 34.6323075C182.082125 33.9823667 182.459403 33.4256804 183.362835 33.4256804 184.191947 33.4256804 184.637154 33.8959762 184.730172 34.6323075M190.227813 39.4579659C192.282016 39.4579659 193.358231 38.5980842 193.358231 37.1005691 193.358231 35.5540602 192.24462 35.0837643 191.26095 34.8115748L190.054559 34.4835275C189.615268 34.3658945 189.373848 34.2177288 189.373848 33.9019889 189.373848 33.5062493 189.732901 33.2771369 190.27089 33.2771369 190.920831 33.2771369 191.669235 33.5928766 192.313022 34.2361903L193.240834 32.9616338C192.517046 32.3677877 191.607223 31.8790302 190.283435 31.8790302 188.569823 31.8790302 187.388047 32.6153616 187.388047 34.1434092 187.388047 35.3497997 188.136687 35.9313383 189.417398 36.2716935L190.31444 36.5067229C190.945684 36.6738237 191.267341 36.8163087 191.267341 37.2245929 191.267341 37.7318117 190.803198 37.9606875 190.233967 37.9606875 189.392783 37.9606875 188.538817 37.4903916 187.981894 36.8903918L186.985916 38.3197411C187.90142 39.0558357 189.120593 39.4579659 190.227813 39.4579659M196.503195 39.3094673L198.136566 39.3094673 198.136566 37.6884022 197.41278 37.6884022C196.787929 37.6884022 196.614675 37.4905321 196.614675 36.7544379L196.614675 33.2647337 198.136566 33.2647337 198.136566 32.0211832 196.614675 32.0211832 196.614675 29.4846153 194.535624 29.4846153 194.535624 32.0211832 193.551956 32.0211832 193.551956 33.2647337 194.535624 33.2647337 194.535624 37.1750295C194.535624 38.6226032 195.148404 39.3094673 196.503195 39.3094673"/>
    <g transform="translate(198.343 31.675)">
      <mask id="logo-horizontal-b" fill="#fff">
        <use xlink:href="#logo-horizontal-a"/>
      </mask>
      <path fill="#FFF" d="M6.94274552,3.73668635 C6.94274552,1.52792904 5.53824842,0.203905329 3.55860361,0.203905329 C1.43647334,0.203905329 0.00712426053,1.67633132 0.00712426053,4.0398819 C0.00712426053,6.55798809 1.63410655,7.77668642 3.83079296,7.77668642 C4.91339655,7.77668642 6.00215394,7.4919527 6.91173964,6.28579893 L5.53233149,5.24011817 C5.17966856,5.8339647 4.50511253,6.15562117 3.86179884,6.15562117 C2.86534909,6.15562117 2.13540822,5.48769215 2.11079281,4.48532559 L6.87457995,4.48532559 C6.93659172,4.08934921 6.94274552,3.9594082 6.94274552,3.73668635 M4.89493497,2.957278 L2.14795263,2.957278 C2.24688754,2.30733721 2.62416566,1.75065087 3.5275977,1.75065087 C4.35671003,1.75065087 4.80191716,2.22094671 4.89493497,2.957278" mask="url(#logo-horizontal-b)"/>
    </g>
    <path fill="#FFF" d="M34.8553848 19.8186039C34.8553848 7.40747936 28.959526.000378698227 15.1112425.000378698227L0 .000378698227 0 39.3395511 15.0617752 39.3395511C28.6620115 39.3395511 34.8553848 32.2545816 34.8553848 19.8186039M26.3086395 19.5707937C26.3086395 27.5724497 23.1375153 31.9573027 14.3929 31.9573027L8.62082863 31.9573027 8.62082863 7.3577753 15.012308 7.3577753C23.3855621 7.3577753 26.3086395 11.8415624 26.3086395 19.5707937M72.3952179 39.3396925L72.3952179 19.6452546C72.3952179 12.9564974 67.787407 9.58750343 60.6032655 9.58750343 56.0200703 9.58750343 51.3381768 10.9993377 47.3003072 14.2696337L50.8674076 19.7938935C53.295337 17.5146044 57.0359281 15.8301067 60.3554546 15.8301067 63.1798329 15.8301067 64.914034 17.0935387 65.0375849 19.4469119L57.0359281 21.7262018C51.1400704 23.3858467 46.7552185 26.1356686 46.7552185 31.7839539 46.7552185 36.9368523 50.2977036 39.9588642 55.7973481 39.9588642 58.5225552 39.9588642 61.544567 39.141587 65.0375849 36.3172081L65.0375849 39.3396925 72.3952179 39.3396925zM65.0375862 30.8675029C62.8080003 32.7749581 60.5287098 34.063242 58.2252777 34.063242 56.1937982 34.063242 55.0044489 32.9482124 55.0044489 31.1399287 55.0044489 29.1827694 56.3178218 28.2168522 59.0177039 27.3496335L65.0375862 25.4170895 65.0375862 30.8675029zM132.627501 24.8475024C132.627501 14.8392183 126.459217 9.58738422 118.20975 9.58738422 109.960282 9.58738422 103.742294 14.8392183 103.742294 24.8475024 103.742294 34.7319986 109.960282 39.9589815 118.20975 39.9589815 126.459217 39.9589815 132.627501 34.7319986 132.627501 24.8475024M124.50182 24.8475022C124.50182 30.8425329 121.851169 33.1959052 118.259217 33.1959052 114.667264 33.1959052 111.991525 30.867148 111.991525 24.8475022 111.991525 18.7038338 114.667264 16.3253722 118.259217 16.3253722 121.851169 16.3253722 124.50182 18.7286858 124.50182 24.8475022"/>
    <polygon fill="#FFF" points="36.868 6.094 45.216 6.094 45.216 0 36.868 0"/>
    <polygon fill="#FFF" points="36.868 39.34 45.216 39.34 45.216 10.157 36.868 10.157"/>
    <path fill="#FFF" d="M74.2600021,39.3397188 L82.6084033,39.3397188 L82.6084033,28.9790071 C82.6084033,21.3240955 84.8133731,17.979717 92.1707687,17.3605455 L92.1707687,10.1266985 C87.3153844,10.1266985 84.0699412,11.7617282 82.4848529,15.9482377 L82.3357408,15.9482377 L82.3357408,10.1569944 L74.2600021,10.1569944 L74.2600021,39.3397188 Z"/>
    <polygon fill="#FFF" points="93.776 6.094 102.124 6.094 102.124 0 93.776 0"/>
    <polygon fill="#FFF" points="93.776 39.34 102.124 39.34 102.124 10.157 93.776 10.157"/>
    <polygon fill="#FFF" points="56.658 6.094 65.007 6.094 65.007 0 56.658 0"/>
  </g>
</svg>
